<?xml version="1.0" encoding="utf-8"?>
<!-- Generator: Adobe Illustrator 27.0.1, SVG Export Plug-In . SVG Version: 6.00 Build 0)  -->
<svg version="1.1" id="Capa_1" xmlns="http://www.w3.org/2000/svg" xmlns:xlink="http://www.w3.org/1999/xlink" x="0px" y="0px"
	 viewBox="0 0 1000 1000" style="" xml:space="preserve" >
<g>
	<path d="M100.12,167.89c1.21,0.67,2.65,1.12,3.57,2.06c2.51,2.56,5.54,2.54,8.79,2.61c13.66,0.28,27,2.81,40.28,5.84
		c15.06,3.44,30.03,7.42,45.25,9.98c14.19,2.39,27.86,6.75,41.89,9.54c9.44,1.88,19.1,2.79,28.7,3.79
		c11.48,1.2,22.99,2.06,34.49,3.01c11.22,0.93,22.47,1.59,33.67,2.74c11.19,1.15,22.31,2.94,33.49,4.11
		c4.51,0.47,9.12-0.01,13.69-0.02c6.76-0.01,13.53-0.24,20.27,0.08c14.91,0.71,29.83,1.41,44.7,2.68
		c13.63,1.16,27.23,2.81,40.77,4.76c6.33,0.91,12.3-0.43,18.42-1.02c14.19-1.35,28.36-3.06,42.58-3.73
		c24.1-1.13,48.26-1.23,72.36-2.44c12.8-0.64,25.53-2.72,38.3-4.13c9.56-1.06,19.12-2.19,28.7-3.1c11.02-1.04,22.08-1.7,33.08-2.9
		c3.13-0.34,5.98-0.71,9.06,0.36c1.2,0.42,2.93-0.49,4.36-0.96c1.04-0.34,1.99-1.37,2.99-1.38c6.51-0.08,13.07-1.16,19.41,1.72
		c4.61,2.09,9.15,1.19,13.24-1.83c1.13-0.83,2.26-1.83,3.56-2.23c6.93-2.13,13.86-4.29,20.9-6.05c3.73-0.93,7.48-0.06,10.85,1.91
		c2.35,1.37,4.45,1.43,6.73-0.32c2.22-1.71,4.84-2.9,7.07-4.6c9.83-7.47,21.48-9.94,33.23-12c2.88-0.5,6.02-0.21,8.93,0.32
		c5.58,1.02,8.19,5.58,6.68,11.85c-3.34,13.93-6.96,27.75-12.99,40.87c-1.58,3.44-1.55,7.67-2.01,11.56
		c-1.58,13.46-2.43,27.04-4.72,40.37c-3.82,22.22-7.49,44.6-18.64,64.74c-1.61,2.91-1.71,5.73-0.92,8.9
		c5.35,21.45,6.66,43.14,3.32,65.03c-0.61,3.96-1.41,8.02-2.94,11.69c-3.39,8.11-3.35,16.37-2.6,24.88
		c0.82,9.35,1.55,18.74,1.54,28.11c-0.03,16.01-0.61,32.02-1.1,48.03c-0.1,3.36-0.71,6.72-1.31,10.03
		c-0.77,4.23-2.44,8.08-5.71,11.05c-1.21,1.09-1.42,2.21-0.74,3.74c5.88,13.22,9.27,27.13,10.96,41.43
		c1.11,9.41,1.71,18.87,2.5,28.32c0.84,9.91,1.63,19.82,2.45,29.73c1.07,12.9,2.1,25.81,3.25,38.7c1.03,11.56,0.82,23.08-1.21,34.51
		c-0.5,2.83-1.34,5.68-2.55,8.27c-1.07,2.29-0.55,3.75,0.94,5.49c3.29,3.85,6.63,7.68,9.58,11.79c8.44,11.77,11.1,25,9.49,39.26
		c-0.44,3.88,0.1,4.35,3.96,4.71c2.52,0.23,5.06,0.38,7.54,0.84c6.02,1.09,10.71,4.19,14.03,9.44c5.81,9.18,9.32,18.95,8.64,30
		c-0.25,4.13-2.21,6.42-6.44,6.54c-7.98,0.23-15.96,0.47-23.94,0.43c-14.18-0.08-28.37-0.37-42.55-0.57
		c-8.14-0.12-16.3,0.08-24.41-0.47c-9.25-0.62-18.44-2.06-27.68-2.84c-3.01-0.25-6.1,0.63-9.15,0.63c-1.44,0-2.89-0.86-4.33-1.31
		c-1.05-0.33-2.09-0.9-3.15-0.91c-5.26-0.07-10.52,0.19-15.77-0.01c-7.67-0.29-15.34-0.78-22.99-1.37
		c-17.4-1.35-34.78-2.83-52.17-4.23c-20.55-1.66-41.33-1.43-61.42-6.84c-5.22-1.41-10-0.56-15.11-0.11
		c-8.76,0.76-17.62,0.54-26.44,0.51c-12.43-0.04-24.64-1.63-36.79-4.46c-4.97-1.16-10.43-0.29-15.66-0.26
		c-18.02,0.1-36.04,0.27-54.06,0.33c-2.04,0.01-4.12-0.38-6.11-0.87c-4.99-1.25-9.82-0.16-14.77,0.39
		c-12.3,1.37-24.65,2.34-36.98,3.41c-5.24,0.45-10.51,1.27-15.72,1.03c-10.57-0.5-20.82,0.9-31.21,2.75
		c-11.13,1.99-22.54,2.46-33.84,3.48c-9.81,0.89-19.64,1.53-29.45,2.48c-19.85,1.92-39.66,4.25-59.53,5.89
		c-13.09,1.08-26.25,1.37-39.39,1.81c-10.42,0.35-20.84,0.65-31.26,0.54c-17.54-0.18-35.08-0.71-52.62-1.08
		c-4.67-0.1-8.61-1.1-11.59-5.44c-2.35-3.43-1.51-6.73-0.95-9.94c1.6-9.2,6.86-16.36,13.94-22.16c5.44-4.46,11.07-8.71,16.77-12.83
		c2.63-1.9,3.73-3.97,4.11-7.34c1.62-14.23,3.66-28.42,5.74-42.6c2.42-16.5,5.14-32.96,7.55-49.47c2.26-15.48,3.56-31.15,9.08-45.95
		c1.79-4.81,4.06-9.49,6.57-13.96c1.84-3.28,2.09-6.21,0.53-9.57c-2.56-5.52-4.92-11.13-7.38-16.69
		c-4.46-10.07-5.43-20.53-3.92-31.39c1.54-11.14,2.34-22.4,4.27-33.47c1.44-8.26,3.99-16.35,6.42-24.41
		c1.05-3.49,1.43-6.64,0.03-10.08c-4.41-10.83-5.81-22.3-6.46-33.81c-0.87-15.37-0.76-30.8-1.88-46.15
		c-0.87-11.94-2.91-23.8-4.53-35.69c-1.45-10.59-0.25-20.8,4.33-30.47c1.99-4.21,1.78-8.1,0.37-12.45
		c-4.48-13.79-9.02-27.58-12.81-41.57c-6.65-24.58-12.92-49.26-19.02-73.98c-3.21-13-6.29-26.08-8.36-39.29
		c-1.44-9.19-1.07-18.66-1.51-28C99.51,168.11,99.81,168,100.12,167.89z"/>
</g>
</svg>
